<svg xmlns="http://www.w3.org/2000/svg" xmlns:xlink="http://www.w3.org/1999/xlink" width="500" zoomAndPan="magnify" viewBox="0 0 375 374.999991" height="500" preserveAspectRatio="xMidYMid meet" version="1.0"><path fill="#009846" d="M 375 187.5 C 375 291.054688 291.054688 375 187.5 375 C 83.945312 375 0 291.054688 0 187.5 C 0 83.945312 83.945312 0 187.5 0 C 291.054688 0 375 83.945312 375 187.5 " fill-opacity="1" fill-rule="nonzero"/><path fill="#ffdf00" d="M 17.070312 184.628906 L 186.890625 74.894531 L 357.519531 184.371094 L 187.25 295.027344 L 17.070312 184.628906 " fill-opacity="1" fill-rule="nonzero"/><path fill="#002279" d="M 259.378906 184.308594 C 259.378906 224.527344 227.167969 257.132812 187.4375 257.132812 C 147.703125 257.132812 115.492188 224.527344 115.492188 184.308594 C 115.492188 144.085938 147.703125 111.484375 187.4375 111.484375 C 227.167969 111.484375 259.378906 144.085938 259.378906 184.308594 " fill-opacity="1" fill-rule="nonzero"/><path fill="#ffffff" d="M 180.777344 155.660156 C 229.976562 166.140625 258.566406 195.269531 258.566406 195.269531 C 257.804688 200.945312 255.90625 206.808594 255.90625 206.808594 C 224.28125 176.519531 184.765625 168.347656 184.765625 168.347656 C 149.574219 159.769531 117.804688 165.945312 117.804688 165.945312 C 118.800781 161.835938 121.648438 154.765625 121.648438 154.765625 C 121.648438 154.765625 145.632812 150.269531 180.777344 155.660156 " fill-opacity="1" fill-rule="nonzero"/><path fill="#ffffff" d="M 128.628906 168.226562 L 129.320312 170.382812 L 131.5625 170.382812 L 129.75 171.71875 L 130.441406 173.875 L 128.628906 172.542969 L 126.816406 173.875 L 127.507812 171.71875 L 125.695312 170.382812 L 127.9375 170.382812 L 128.628906 168.226562 " fill-opacity="1" fill-rule="nonzero"/><path fill="#ffffff" d="M 159.878906 184.742188 L 160.484375 186.625 L 162.429688 186.625 L 160.851562 187.78125 L 161.457031 189.664062 L 159.878906 188.5 L 158.296875 189.664062 L 158.902344 187.78125 L 157.324219 186.625 L 159.273438 186.625 L 159.878906 184.742188 " fill-opacity="1" fill-rule="nonzero"/><path fill="#ffffff" d="M 142.117188 195.703125 L 142.484375 196.851562 L 143.671875 196.851562 L 142.710938 197.558594 L 143.078125 198.703125 L 142.117188 197.992188 L 141.152344 198.703125 L 141.523438 197.558594 L 140.5625 196.851562 L 141.75 196.851562 L 142.117188 195.703125 " fill-opacity="1" fill-rule="nonzero"/><path fill="#ffffff" d="M 134.992188 198.675781 L 135.761719 201.078125 L 138.257812 201.078125 L 136.242188 202.558594 L 137.011719 204.960938 L 134.992188 203.476562 L 132.976562 204.960938 L 133.746094 202.558594 L 131.726562 201.078125 L 134.222656 201.078125 L 134.992188 198.675781 " fill-opacity="1" fill-rule="nonzero"/><path fill="#ffffff" d="M 126.0625 206.035156 L 126.632812 207.808594 L 128.476562 207.808594 L 126.984375 208.902344 L 127.554688 210.675781 L 126.0625 209.582031 L 124.574219 210.675781 L 125.140625 208.902344 L 123.65625 207.808594 L 125.496094 207.808594 L 126.0625 206.035156 " fill-opacity="1" fill-rule="nonzero"/><path fill="#ffffff" d="M 149.972656 206.726562 L 150.542969 208.503906 L 152.382812 208.503906 L 150.894531 209.597656 L 151.464844 211.367188 L 149.972656 210.273438 L 148.480469 211.367188 L 149.050781 209.597656 L 147.558594 208.503906 L 149.402344 208.503906 L 149.972656 206.726562 " fill-opacity="1" fill-rule="nonzero"/><path fill="#ffffff" d="M 147.785156 214.035156 L 148.355469 215.808594 L 150.199219 215.808594 L 148.707031 216.90625 L 149.277344 218.675781 L 147.785156 217.582031 L 146.300781 218.675781 L 146.867188 216.90625 L 145.378906 215.808594 L 147.214844 215.808594 L 147.785156 214.035156 " fill-opacity="1" fill-rule="nonzero"/><path fill="#ffffff" d="M 158.425781 220.300781 L 159.0625 222.28125 L 161.121094 222.28125 L 159.457031 223.507812 L 160.089844 225.492188 L 158.425781 224.265625 L 156.761719 225.492188 L 157.394531 223.507812 L 155.730469 222.28125 L 157.792969 222.28125 L 158.425781 220.300781 " fill-opacity="1" fill-rule="nonzero"/><path fill="#ffffff" d="M 187.207031 214.433594 L 187.84375 216.414062 L 189.902344 216.414062 L 188.234375 217.640625 L 188.871094 219.625 L 187.207031 218.402344 L 185.539062 219.625 L 186.175781 217.640625 L 184.511719 216.414062 L 186.566406 216.414062 L 187.207031 214.433594 " fill-opacity="1" fill-rule="nonzero"/><path fill="#ffffff" d="M 195.660156 200.109375 L 196.246094 201.945312 L 198.152344 201.945312 L 196.613281 203.078125 L 197.203125 204.914062 L 195.660156 203.78125 L 194.117188 204.914062 L 194.707031 203.078125 L 193.164062 201.945312 L 195.070312 201.945312 L 195.660156 200.109375 " fill-opacity="1" fill-rule="nonzero"/><path fill="#ffffff" d="M 187.207031 193.472656 L 187.792969 195.308594 L 189.699219 195.308594 L 188.160156 196.445312 L 188.746094 198.277344 L 187.207031 197.144531 L 185.664062 198.277344 L 186.25 196.445312 L 184.710938 195.308594 L 186.617188 195.308594 L 187.207031 193.472656 " fill-opacity="1" fill-rule="nonzero"/><path fill="#ffffff" d="M 179.941406 200.152344 L 180.460938 201.777344 L 182.148438 201.777344 L 180.785156 202.78125 L 181.308594 204.410156 L 179.941406 203.402344 L 178.574219 204.410156 L 179.097656 202.78125 L 177.730469 201.777344 L 179.417969 201.777344 L 179.941406 200.152344 " fill-opacity="1" fill-rule="nonzero"/><path fill="#ffffff" d="M 183.550781 205.988281 L 183.9375 207.195312 L 185.191406 207.195312 L 184.175781 207.941406 L 184.5625 209.148438 L 183.550781 208.402344 L 182.535156 209.148438 L 182.925781 207.941406 L 181.910156 207.195312 L 183.160156 207.195312 L 183.550781 205.988281 " fill-opacity="1" fill-rule="nonzero"/><path fill="#ffffff" d="M 206.839844 179.183594 L 207.226562 180.390625 L 208.480469 180.390625 L 207.464844 181.136719 L 207.851562 182.34375 L 206.839844 181.597656 L 205.824219 182.34375 L 206.210938 181.136719 L 205.199219 180.390625 L 206.453125 180.390625 L 206.839844 179.183594 " fill-opacity="1" fill-rule="nonzero"/><path fill="#ffffff" d="M 209.59375 158.511719 L 210.3125 160.746094 L 212.632812 160.746094 L 210.757812 162.128906 L 211.472656 164.363281 L 209.59375 162.984375 L 207.714844 164.363281 L 208.429688 162.128906 L 206.554688 160.746094 L 208.875 160.746094 L 209.59375 158.511719 " fill-opacity="1" fill-rule="nonzero"/><path fill="#ffffff" d="M 237.613281 206.875 L 238.332031 209.109375 L 240.652344 209.109375 L 238.777344 210.492188 L 239.492188 212.726562 L 237.613281 211.34375 L 235.734375 212.726562 L 236.453125 210.492188 L 234.574219 209.109375 L 236.898438 209.109375 L 237.613281 206.875 " fill-opacity="1" fill-rule="nonzero"/><path fill="#ffffff" d="M 236.09375 219.46875 L 236.691406 221.339844 L 238.632812 221.339844 L 237.0625 222.492188 L 237.664062 224.363281 L 236.09375 223.207031 L 234.523438 224.363281 L 235.121094 222.492188 L 233.550781 221.339844 L 235.492188 221.339844 L 236.09375 219.46875 " fill-opacity="1" fill-rule="nonzero"/><path fill="#ffffff" d="M 240.558594 213.894531 L 241.160156 215.761719 L 243.097656 215.761719 L 241.53125 216.917969 L 242.125 218.78125 L 240.558594 217.632812 L 238.988281 218.78125 L 239.589844 216.917969 L 238.019531 215.761719 L 239.957031 215.761719 L 240.558594 213.894531 " fill-opacity="1" fill-rule="nonzero"/><path fill="#ffffff" d="M 247.589844 208.410156 L 248.046875 209.839844 L 249.53125 209.839844 L 248.328125 210.722656 L 248.785156 212.148438 L 247.589844 211.269531 L 246.386719 212.148438 L 246.84375 210.722656 L 245.644531 209.839844 L 247.128906 209.839844 L 247.589844 208.410156 " fill-opacity="1" fill-rule="nonzero"/><path fill="#ffffff" d="M 230.394531 223.890625 L 230.851562 225.320312 L 232.335938 225.320312 L 231.136719 226.203125 L 231.59375 227.628906 L 230.394531 226.75 L 229.195312 227.628906 L 229.652344 226.203125 L 228.457031 225.320312 L 229.933594 225.320312 L 230.394531 223.890625 " fill-opacity="1" fill-rule="nonzero"/><path fill="#ffffff" d="M 223.273438 229.289062 L 223.796875 230.929688 L 225.496094 230.929688 L 224.121094 231.941406 L 224.644531 233.578125 L 223.273438 232.566406 L 221.898438 233.578125 L 222.421875 231.941406 L 221.046875 230.929688 L 222.746094 230.929688 L 223.273438 229.289062 " fill-opacity="1" fill-rule="nonzero"/><path fill="#ffffff" d="M 222.796875 222.542969 L 223.234375 223.898438 L 224.640625 223.898438 L 223.5 224.742188 L 223.9375 226.09375 L 222.796875 225.257812 L 221.65625 226.09375 L 222.089844 224.742188 L 220.949219 223.898438 L 222.363281 223.898438 L 222.796875 222.542969 " fill-opacity="1" fill-rule="nonzero"/><path fill="#ffffff" d="M 215.007812 225.136719 L 215.441406 226.496094 L 216.851562 226.496094 L 215.714844 227.332031 L 216.148438 228.691406 L 215.007812 227.855469 L 213.867188 228.691406 L 214.300781 227.332031 L 213.160156 226.496094 L 214.574219 226.496094 L 215.007812 225.136719 " fill-opacity="1" fill-rule="nonzero"/><path fill="#ffffff" d="M 203.132812 223.214844 L 203.570312 224.574219 L 204.980469 224.574219 L 203.839844 225.414062 L 204.273438 226.769531 L 203.132812 225.929688 L 201.992188 226.769531 L 202.429688 225.414062 L 201.292969 224.574219 L 202.699219 224.574219 L 203.132812 223.214844 " fill-opacity="1" fill-rule="nonzero"/><path fill="#ffffff" d="M 223.234375 237.261719 L 223.667969 238.621094 L 225.078125 238.621094 L 223.9375 239.460938 L 224.375 240.820312 L 223.234375 239.980469 L 222.089844 240.820312 L 222.527344 239.460938 L 221.386719 238.621094 L 222.796875 238.621094 L 223.234375 237.261719 " fill-opacity="1" fill-rule="nonzero"/><path fill="#ffffff" d="M 208.890625 231.207031 L 209.417969 232.859375 L 211.132812 232.859375 L 209.75 233.878906 L 210.277344 235.53125 L 208.890625 234.511719 L 207.5 235.53125 L 208.035156 233.878906 L 206.644531 232.859375 L 208.363281 232.859375 L 208.890625 231.207031 " fill-opacity="1" fill-rule="nonzero"/><path fill="#ffffff" d="M 187.425781 240.34375 L 187.667969 241.109375 L 188.46875 241.109375 L 187.824219 241.589844 L 188.070312 242.355469 L 187.425781 241.878906 L 186.777344 242.355469 L 187.023438 241.589844 L 186.378906 241.109375 L 187.179688 241.109375 L 187.425781 240.34375 " fill-opacity="1" fill-rule="nonzero"/><path fill="#009b2d" d="M 122.699219 159.878906 C 123.003906 161.164062 124.058594 162.179688 125.433594 161.976562 C 126.816406 161.773438 127.371094 160.535156 127.097656 159.164062 C 126.855469 157.96875 125.875 156.804688 124.355469 157.027344 C 122.851562 157.25 122.386719 158.5625 122.699219 159.878906 Z M 128.035156 159.011719 C 128.429688 161.085938 127.234375 162.363281 125.519531 162.617188 C 123.746094 162.878906 122.203125 161.867188 121.75 160.054688 C 121.285156 158.152344 122.367188 156.667969 124.257812 156.386719 C 126.191406 156.109375 127.6875 157.222656 128.035156 159.011719 " fill-opacity="1" fill-rule="nonzero"/><path fill="#009b2d" d="M 133.144531 158.324219 C 133.453125 158.292969 133.757812 158.265625 134.058594 158.246094 C 135.019531 158.160156 135.5625 157.65625 135.464844 156.960938 C 135.359375 156.179688 134.648438 155.886719 133.6875 155.960938 C 133.246094 156 132.9375 156.0625 132.796875 156.113281 C 132.910156 156.847656 133.027344 157.585938 133.144531 158.324219 Z M 131.796875 155.652344 C 132.246094 155.523438 132.902344 155.417969 133.53125 155.359375 C 134.507812 155.277344 135.160156 155.382812 135.648438 155.691406 C 136.042969 155.9375 136.292969 156.339844 136.355469 156.804688 C 136.460938 157.605469 135.953125 158.179688 135.257812 158.453125 C 135.257812 158.464844 135.261719 158.472656 135.261719 158.484375 C 135.820312 158.597656 136.191406 159.011719 136.441406 159.628906 C 136.777344 160.460938 137.019531 161.035156 137.1875 161.261719 C 136.886719 161.28125 136.585938 161.300781 136.285156 161.324219 C 136.152344 161.160156 135.929688 160.648438 135.625 159.910156 C 135.308594 159.085938 134.890625 158.800781 134.078125 158.839844 C 133.800781 158.867188 133.519531 158.890625 133.238281 158.917969 C 133.375 159.792969 133.511719 160.667969 133.652344 161.542969 C 133.359375 161.570312 133.070312 161.597656 132.777344 161.628906 C 132.453125 159.632812 132.121094 157.640625 131.796875 155.652344 " fill-opacity="1" fill-rule="nonzero"/><path fill="#009b2d" d="M 142.019531 160.382812 C 142.246094 160.410156 142.570312 160.40625 142.910156 160.398438 C 144.785156 160.34375 145.746094 159.398438 145.640625 157.753906 C 145.554688 156.316406 144.554688 155.410156 142.625 155.460938 C 142.152344 155.472656 141.804688 155.523438 141.566406 155.578125 C 141.714844 157.179688 141.867188 158.78125 142.019531 160.382812 Z M 140.597656 155.035156 C 141.144531 154.941406 141.804688 154.863281 142.53125 154.839844 C 143.84375 154.800781 144.800781 155.050781 145.449219 155.542969 C 146.109375 156.027344 146.515625 156.730469 146.574219 157.71875 C 146.632812 158.710938 146.332031 159.523438 145.734375 160.09375 C 145.132812 160.671875 144.109375 160.992188 142.796875 161.035156 C 142.171875 161.054688 141.644531 161.046875 141.199219 161.019531 C 141 159.027344 140.796875 157.03125 140.597656 155.035156 " fill-opacity="1" fill-rule="nonzero"/><path fill="#009b2d" d="M 154.410156 158.207031 C 153.515625 158.164062 152.621094 158.136719 151.722656 158.109375 C 151.738281 158.839844 151.753906 159.574219 151.769531 160.300781 C 152.753906 160.332031 153.738281 160.367188 154.714844 160.414062 C 154.714844 160.632812 154.714844 160.851562 154.714844 161.074219 C 153.449219 161.011719 152.179688 160.96875 150.914062 160.941406 C 150.855469 158.914062 150.796875 156.882812 150.738281 154.855469 C 152.015625 154.878906 153.289062 154.925781 154.558594 154.984375 C 154.558594 155.203125 154.558594 155.421875 154.558594 155.640625 C 153.597656 155.597656 152.628906 155.558594 151.667969 155.535156 C 151.679688 156.175781 151.695312 156.816406 151.710938 157.460938 C 152.609375 157.480469 153.507812 157.515625 154.410156 157.558594 C 154.410156 157.773438 154.410156 157.992188 154.410156 158.207031 " fill-opacity="1" fill-rule="nonzero"/><path fill="#009b2d" d="M 164.722656 159.183594 C 164.734375 158.339844 164.746094 157.316406 164.8125 156.566406 C 164.800781 156.566406 164.792969 156.5625 164.78125 156.5625 C 164.492188 157.246094 164.148438 157.964844 163.75 158.765625 C 163.277344 159.703125 162.820312 160.640625 162.367188 161.582031 C 162.148438 161.558594 161.925781 161.539062 161.707031 161.523438 C 161.394531 160.523438 161.074219 159.53125 160.742188 158.535156 C 160.453125 157.652344 160.207031 156.847656 160.039062 156.113281 C 160.03125 156.113281 160.023438 156.113281 160.015625 156.109375 C 159.964844 156.863281 159.878906 157.878906 159.78125 158.78125 C 159.6875 159.644531 159.597656 160.507812 159.503906 161.371094 C 159.230469 161.347656 158.949219 161.328125 158.675781 161.304688 C 158.890625 159.292969 159.113281 157.28125 159.34375 155.269531 C 159.730469 155.300781 160.121094 155.328125 160.507812 155.363281 C 160.863281 156.375 161.21875 157.386719 161.558594 158.398438 C 161.808594 159.171875 162.007812 159.859375 162.144531 160.507812 C 162.15625 160.507812 162.164062 160.507812 162.175781 160.507812 C 162.378906 159.910156 162.65625 159.269531 163.011719 158.535156 C 163.480469 157.597656 163.957031 156.667969 164.445312 155.738281 C 164.828125 155.78125 165.214844 155.820312 165.597656 155.867188 C 165.585938 157.898438 165.570312 159.929688 165.546875 161.960938 C 165.261719 161.925781 164.980469 161.894531 164.699219 161.863281 C 164.707031 160.96875 164.714844 160.078125 164.722656 159.183594 " fill-opacity="1" fill-rule="nonzero"/><path fill="#009b2d" d="M 178.867188 161.214844 C 177.988281 161.039062 177.113281 160.867188 176.234375 160.707031 C 176.117188 161.421875 176.003906 162.140625 175.890625 162.859375 C 176.851562 163.035156 177.816406 163.222656 178.777344 163.421875 C 178.738281 163.636719 178.699219 163.851562 178.660156 164.066406 C 177.417969 163.8125 176.175781 163.570312 174.929688 163.347656 C 175.234375 161.355469 175.535156 159.363281 175.839844 157.367188 C 177.089844 157.59375 178.339844 157.832031 179.585938 158.085938 C 179.550781 158.300781 179.511719 158.515625 179.472656 158.730469 C 178.53125 158.539062 177.582031 158.355469 176.632812 158.179688 C 176.535156 158.8125 176.433594 159.4375 176.335938 160.066406 C 177.21875 160.230469 178.097656 160.398438 178.984375 160.582031 C 178.941406 160.792969 178.902344 161.003906 178.867188 161.214844 " fill-opacity="1" fill-rule="nonzero"/><path fill="#009b2d" d="M 189.300781 163.460938 C 189.476562 163.554688 189.707031 163.640625 189.996094 163.71875 C 191.03125 164.007812 191.785156 163.753906 192.011719 162.953125 C 192.230469 162.1875 191.703125 161.628906 190.734375 161.359375 C 190.355469 161.253906 190.054688 161.199219 189.894531 161.191406 C 189.695312 161.949219 189.496094 162.707031 189.300781 163.460938 Z M 189.15625 160.40625 C 189.597656 160.460938 190.167969 160.558594 190.875 160.753906 C 191.742188 160.996094 192.328125 161.355469 192.640625 161.78125 C 192.941406 162.167969 193.035156 162.652344 192.886719 163.167969 C 192.738281 163.691406 192.4375 164.054688 192.019531 164.257812 C 191.441406 164.546875 190.652344 164.554688 189.8125 164.320312 C 189.5625 164.246094 189.324219 164.175781 189.136719 164.078125 C 188.933594 164.859375 188.730469 165.636719 188.527344 166.417969 C 188.246094 166.34375 187.964844 166.265625 187.683594 166.191406 C 188.175781 164.261719 188.667969 162.335938 189.15625 160.40625 " fill-opacity="1" fill-rule="nonzero"/><path fill="#009b2d" d="M 197.515625 165.78125 C 197.808594 165.878906 198.097656 165.972656 198.382812 166.070312 C 199.289062 166.375 200.011719 166.148438 200.242188 165.492188 C 200.5 164.761719 199.988281 164.222656 199.082031 163.902344 C 198.667969 163.765625 198.359375 163.699219 198.207031 163.6875 C 197.976562 164.386719 197.75 165.085938 197.515625 165.78125 Z M 197.511719 162.886719 C 197.976562 162.953125 198.617188 163.113281 199.214844 163.320312 C 200.136719 163.628906 200.683594 163.980469 200.984375 164.445312 C 201.230469 164.816406 201.28125 165.269531 201.121094 165.707031 C 200.851562 166.460938 200.132812 166.765625 199.375 166.730469 C 199.371094 166.738281 199.371094 166.746094 199.367188 166.753906 C 199.820312 167.082031 199.972656 167.59375 199.917969 168.238281 C 199.84375 169.105469 199.800781 169.707031 199.851562 169.972656 C 199.570312 169.871094 199.285156 169.769531 199.003906 169.671875 C 198.953125 169.476562 198.984375 168.9375 199.050781 168.164062 C 199.132812 167.308594 198.886719 166.890625 198.128906 166.605469 C 197.863281 166.519531 197.597656 166.429688 197.335938 166.34375 C 197.058594 167.167969 196.789062 167.996094 196.515625 168.828125 C 196.234375 168.738281 195.960938 168.640625 195.683594 168.554688 C 196.296875 166.664062 196.90625 164.777344 197.511719 162.886719 " fill-opacity="1" fill-rule="nonzero"/><path fill="#009b2d" d="M 205.238281 168.792969 C 204.761719 169.992188 205.070312 171.347656 206.347656 171.863281 C 207.628906 172.382812 208.8125 171.652344 209.363281 170.394531 C 209.84375 169.296875 209.675781 167.859375 208.265625 167.285156 C 206.863281 166.722656 205.722656 167.5625 205.238281 168.792969 Z M 210.246094 170.730469 C 209.394531 172.628906 207.648438 173.078125 206.054688 172.433594 C 204.40625 171.765625 203.679688 170.171875 204.34375 168.46875 C 205.027344 166.679688 206.792969 166.003906 208.550781 166.714844 C 210.347656 167.445312 210.980469 169.097656 210.246094 170.730469 " fill-opacity="1" fill-rule="nonzero"/><path fill="#009b2d" d="M 217.5625 177.21875 C 217.152344 177.15625 216.363281 176.992188 215.539062 176.597656 C 214.617188 176.152344 213.960938 175.585938 213.601562 174.796875 C 213.289062 174.097656 213.300781 173.21875 213.707031 172.367188 C 214.488281 170.746094 216.382812 170.148438 218.527344 171.1875 C 219.261719 171.546875 219.769531 171.964844 219.984375 172.214844 C 219.816406 172.367188 219.652344 172.523438 219.488281 172.679688 C 219.21875 172.382812 218.851562 172.070312 218.207031 171.761719 C 216.660156 171.007812 215.242188 171.367188 214.585938 172.730469 C 213.917969 174.113281 214.464844 175.359375 215.886719 176.046875 C 216.402344 176.296875 216.792969 176.40625 217.015625 176.414062 C 217.292969 175.882812 217.570312 175.351562 217.851562 174.820312 C 217.429688 174.609375 217.007812 174.40625 216.589844 174.203125 C 216.683594 174.019531 216.777344 173.828125 216.871094 173.644531 C 217.558594 173.976562 218.242188 174.3125 218.925781 174.652344 C 218.46875 175.507812 218.015625 176.363281 217.5625 177.21875 " fill-opacity="1" fill-rule="nonzero"/><path fill="#009b2d" d="M 223.691406 177.089844 C 223.957031 177.238281 224.226562 177.386719 224.496094 177.53125 C 225.335938 177.992188 226.101562 177.898438 226.460938 177.308594 C 226.871094 176.640625 226.46875 176.023438 225.628906 175.550781 C 225.242188 175.34375 224.953125 175.222656 224.804688 175.183594 C 224.429688 175.820312 224.0625 176.457031 223.691406 177.089844 Z M 224.273438 174.273438 C 224.722656 174.421875 225.324219 174.703125 225.878906 175.003906 C 226.738281 175.476562 227.210938 175.917969 227.417969 176.421875 C 227.585938 176.832031 227.542969 177.285156 227.296875 177.679688 C 226.878906 178.359375 226.09375 178.527344 225.347656 178.351562 C 225.34375 178.359375 225.335938 178.371094 225.332031 178.378906 C 225.71875 178.773438 225.769531 179.304688 225.582031 179.917969 C 225.335938 180.75 225.171875 181.328125 225.171875 181.59375 C 224.90625 181.449219 224.644531 181.296875 224.382812 181.148438 C 224.375 180.949219 224.515625 180.429688 224.734375 179.6875 C 224.988281 178.875 224.828125 178.421875 224.132812 178.007812 C 223.886719 177.871094 223.640625 177.738281 223.390625 177.605469 C 222.953125 178.359375 222.511719 179.113281 222.074219 179.875 C 221.816406 179.734375 221.5625 179.59375 221.304688 179.457031 C 222.292969 177.730469 223.28125 176.003906 224.273438 174.273438 " fill-opacity="1" fill-rule="nonzero"/><path fill="#009b2d" d="M 233.25 183.160156 C 232.492188 182.679688 231.726562 182.199219 230.960938 181.730469 C 230.558594 182.335938 230.148438 182.941406 229.746094 183.546875 C 230.585938 184.0625 231.417969 184.589844 232.253906 185.121094 C 232.125 185.300781 232 185.480469 231.871094 185.660156 C 230.804688 184.96875 229.71875 184.296875 228.632812 183.636719 C 229.746094 181.949219 230.855469 180.261719 231.972656 178.574219 C 233.066406 179.234375 234.152344 179.914062 235.226562 180.601562 C 235.105469 180.785156 234.976562 180.960938 234.851562 181.140625 C 234.035156 180.621094 233.214844 180.105469 232.390625 179.597656 C 232.035156 180.128906 231.679688 180.660156 231.324219 181.191406 C 232.09375 181.664062 232.855469 182.144531 233.621094 182.628906 C 233.496094 182.808594 233.375 182.984375 233.25 183.160156 " fill-opacity="1" fill-rule="nonzero"/><path fill="#009b2d" d="M 235.824219 187.121094 C 236.019531 187.519531 236.390625 187.988281 236.894531 188.335938 C 237.632812 188.851562 238.324219 188.820312 238.703125 188.339844 C 239.050781 187.894531 238.949219 187.421875 238.375 186.632812 C 237.660156 185.707031 237.378906 184.902344 237.894531 184.214844 C 238.460938 183.453125 239.640625 183.402344 240.777344 184.195312 C 241.375 184.617188 241.71875 185.035156 241.878906 185.339844 C 241.679688 185.457031 241.476562 185.578125 241.277344 185.695312 C 241.15625 185.476562 240.878906 185.0625 240.355469 184.691406 C 239.5625 184.140625 238.953125 184.328125 238.707031 184.660156 C 238.363281 185.113281 238.546875 185.578125 239.140625 186.386719 C 239.863281 187.378906 240.039062 188.117188 239.484375 188.816406 C 238.898438 189.550781 237.761719 189.730469 236.449219 188.816406 C 235.90625 188.445312 235.417969 187.898438 235.242188 187.523438 C 235.441406 187.390625 235.632812 187.253906 235.824219 187.121094 " fill-opacity="1" fill-rule="nonzero"/><path fill="#009b2d" d="M 242.382812 191.828125 C 242.558594 192.234375 242.898438 192.722656 243.386719 193.09375 C 244.101562 193.648438 244.796875 193.660156 245.207031 193.195312 C 245.585938 192.773438 245.507812 192.296875 244.976562 191.480469 C 244.308594 190.515625 244.074219 189.695312 244.628906 189.039062 C 245.238281 188.3125 246.429688 188.328125 247.523438 189.179688 C 248.101562 189.628906 248.417969 190.070312 248.570312 190.378906 C 248.359375 190.488281 248.152344 190.597656 247.945312 190.707031 C 247.835938 190.480469 247.582031 190.046875 247.074219 189.652344 C 246.308594 189.054688 245.691406 189.214844 245.421875 189.53125 C 245.046875 189.960938 245.210938 190.433594 245.757812 191.273438 C 246.429688 192.304688 246.5625 193.054688 245.960938 193.722656 C 245.332031 194.421875 244.179688 194.539062 242.910156 193.550781 C 242.394531 193.152344 241.929688 192.585938 241.777344 192.195312 C 241.980469 192.074219 242.183594 191.949219 242.382812 191.828125 " fill-opacity="1" fill-rule="nonzero"/><path fill="#009b2d" d="M 250.640625 195.828125 C 249.738281 196.777344 249.53125 198.132812 250.582031 199.050781 C 251.636719 199.976562 253.054688 199.710938 254.050781 198.738281 C 254.929688 197.890625 255.292969 196.5 254.136719 195.484375 C 252.988281 194.476562 251.566406 194.859375 250.640625 195.828125 Z M 254.789062 199.359375 C 253.257812 200.816406 251.398438 200.625 250.089844 199.476562 C 248.734375 198.285156 248.621094 196.570312 249.890625 195.21875 C 251.21875 193.804688 253.179688 193.785156 254.621094 195.054688 C 256.097656 196.347656 256.101562 198.101562 254.789062 199.359375 " fill-opacity="1" fill-rule="nonzero"/></svg>